<svg xmlns="http://www.w3.org/2000/svg" xmlns:xlink="http://www.w3.org/1999/xlink" id="图层_1" x="0" y="0" version="1.1" viewBox="0 0 512 512" style="enable-background:new 0 0 512 512" xml:space="preserve"><style type="text/css">.st0{fill:url(#SVGID_1_)}.st1{fill:url(#SVGID_2_)}.st2{fill:url(#SVGID_3_)}.st3{fill:url(#SVGID_4_)}</style><g><linearGradient id="SVGID_1_" x1="183.797" x2="457.824" y1="245.824" y2="404.033" gradientUnits="userSpaceOnUse"><stop offset="0" style="stop-color:#fc6cff"/><stop offset=".262" style="stop-color:#ab6efe"/><stop offset=".621" style="stop-color:#6942fa"/><stop offset=".994" style="stop-color:#64e1ff"/></linearGradient><path d="M195.2,497.9c-6-1.3-11.6-3.8-18.5-6c12-40.8,14.8-82,11.9-124.1c10,0,18.9,0.1,27.8,0 c21.3-0.2,42.6,0.9,63.8-3.8c52.3-11.5,91.7-62.4,86.4-121.7c-1.1-12.4-1.3-12.5-13.6-12.4c-32.2,0.1-64.5,0-96.7,0.5 c-16.8,0.3-23.9,6.8-26.3,23.4c-0.9,6.4-0.9,13-1.3,20.3c28.6,0,56.2,0,85.1,0c-1.5,4.9-2.1,9-3.9,12.7 c-9.5,19.2-24.9,31.3-46.4,32.3c-24.9,1.2-49.9,0.3-74.7,0.3c-0.3-0.5-0.7-0.8-0.7-1.1c1.3-25.5,1.5-51.1,4.3-76.4 c3.1-27.8,20.3-44.7,48.5-50.3c9.5-1.9,19.5-2.4,29.3-2.5c48.9-0.2,97.8-0.2,146.7,0c25.3,0.1,50.4-0.6,74.3-15.8 c3.7,14.4,8.3,27.5,10.4,40.9c22,138.5-69.1,264.5-207.7,287.9C285.9,503.4,250.8,509.9,195.2,497.9z" class="st0"/><linearGradient id="SVGID_2_" x1="52.567" x2="269.566" y1="103.846" y2="229.13" gradientUnits="userSpaceOnUse"><stop offset="0" style="stop-color:#fc6cff"/><stop offset=".262" style="stop-color:#ab6efe"/><stop offset=".621" style="stop-color:#6942fa"/><stop offset=".994" style="stop-color:#64e1ff"/></linearGradient><path d="M9.7,202.3C32.8,97.7,115.8,21.4,221.7,7c36.5-4.9,72.3-2.4,107.2,10.2c1.6,0.6,3.2,1.2,4.8,1.8 c0.4,0.2,0.7,0.5,1,0.7c0.1,0.4,0.4,0.9,0.2,1.2c-11.9,19.4-14.7,41-14.8,63.2c-0.1,17-0.1,34-0.2,51.1c0,2.3-0.4,4.6-0.6,7.8 c-18.6,0-36.8,0.5-55.1-0.1c-19.3-0.7-38,1.2-55.5,9.6c-43.8,21-64.7,56.9-66.5,104.4c-0.8,20.6-0.1,41.3-0.1,62.8 c-2.5,0-4.5,0.1-6.5,0c-37.8-2.5-75,1.2-111.4,11.7c-4.6,1.3-7,0.3-8.4-4.4C0.5,273.7,7.1,214.3,9.7,202.3z" class="st1"/><linearGradient id="SVGID_3_" x1="45.446" x2="154.868" y1="367.284" y2="430.459" gradientUnits="userSpaceOnUse"><stop offset="0" style="stop-color:#fc6cff"/><stop offset=".262" style="stop-color:#ab6efe"/><stop offset=".621" style="stop-color:#6942fa"/><stop offset=".994" style="stop-color:#64e1ff"/></linearGradient><path d="M130.9,472c-40.1-22.6-69.7-53.4-93.1-91.5c11.3-8.3,23.8-14.1,37.2-17.6c21.4-5.6,42.7-4.3,63.6,2.9 c1.8,0.6,4.2,2.7,4.4,4.3c2.2,24.2,5,48.5-1.4,72.4C139,452.4,134.7,461.8,130.9,472z" class="st2"/><linearGradient id="SVGID_4_" x1="356.709" x2="463.848" y1="80.424" y2="142.281" gradientUnits="userSpaceOnUse"><stop offset="0" style="stop-color:#fc6cff"/><stop offset=".262" style="stop-color:#ab6efe"/><stop offset=".621" style="stop-color:#6942fa"/><stop offset=".994" style="stop-color:#64e1ff"/></linearGradient><path d="M380.5,39.2c39.6,21.9,68.4,52.4,90.8,90.1c-12.2,8.7-25.7,12.9-40.1,13.3c-20.2,0.7-40.5,0.2-62,0.2 C365.2,107.9,361.9,72.9,380.5,39.2z" class="st3"/></g></svg>