<svg xmlns="http://www.w3.org/2000/svg" xmlns:xlink="http://www.w3.org/1999/xlink" id="favicon" x="0" y="0" version="1.1" viewBox="0 0 512 512" style="enable-background:new 0 0 512 512" xml:space="preserve"><style type="text/css">.st0{fill:url(#SVGID_1_)}.st1{fill:url(#SVGID_2_)}.st2{fill:url(#SVGID_3_)}.st3{fill:url(#SVGID_4_)}</style><linearGradient id="SVGID_1_" x1="185.368" x2="462.436" y1="246.096" y2="406.062" gradientUnits="userSpaceOnUse"><stop offset="0" style="stop-color:#fc6cff"/><stop offset=".262" style="stop-color:#ab6efe"/><stop offset=".621" style="stop-color:#6942fa"/><stop offset=".994" style="stop-color:#64e1ff"/></linearGradient><path d="M196.9,501c-6-1.3-11.8-3.8-18.7-6.1c12.1-41.2,15-82.9,12-125.5c10.1,0,19.2,0.1,28.2,0	c21.5-0.2,43.1,0.9,64.5-3.8c52.8-11.6,92.7-63.1,87.4-123c-1.1-12.6-1.3-12.6-13.7-12.6c-32.6,0.1-65.2,0-97.8,0.5	c-17,0.3-24.1,6.9-26.6,23.7c-0.9,6.5-0.9,13.2-1.3,20.5c28.9,0,56.9,0,86,0c-1.5,4.9-2.2,9.1-4,12.8c-9.6,19.4-25.1,31.7-46.9,32.7	c-25.2,1.2-50.4,0.3-75.6,0.3c-0.3-0.5-0.7-0.8-0.7-1.1c1.3-25.8,1.5-51.7,4.4-77.3c3.1-28.1,20.6-45.2,49.1-50.8	c9.7-1.9,19.7-2.5,29.6-2.5c49.4-0.2,98.9-0.2,148.3,0c25.6,0.1,51-0.6,75.2-16c3.8,14.5,8.4,27.8,10.5,41.4	c22.2,140.1-69.9,267.5-210.1,291.1C288.6,506.5,253.1,513.1,196.9,501z" class="st0"/><linearGradient id="SVGID_2_" x1="52.682" x2="272.089" y1="102.543" y2="229.218" gradientUnits="userSpaceOnUse"><stop offset="0" style="stop-color:#fc6cff"/><stop offset=".262" style="stop-color:#ab6efe"/><stop offset=".621" style="stop-color:#6942fa"/><stop offset=".994" style="stop-color:#64e1ff"/></linearGradient><path d="M9.3,202.1C32.7,96.3,116.6,19.1,223.7,4.7c36.9-5,73.1-2.5,108.4,10.3c1.6,0.6,3.2,1.2,4.8,1.8	c0.4,0.2,0.7,0.5,1.1,0.7c0.1,0.4,0.4,0.9,0.2,1.2c-12,19.7-14.8,41.5-15,63.9c-0.1,17.2-0.1,34.4-0.2,51.6c0,2.3-0.4,4.6-0.6,7.9	c-18.8,0-37.2,0.5-55.7-0.1c-19.5-0.7-38.4,1.2-56.1,9.7c-44.3,21.2-65.4,57.5-67.3,105.6c-0.8,20.8-0.1,41.7-0.1,63.5	c-2.5,0-4.6,0.1-6.6,0c-38.2-2.5-75.8,1.2-112.6,11.8c-4.7,1.4-7.1,0.3-8.5-4.4C0,274.3,6.7,214.2,9.3,202.1z" class="st1"/><linearGradient id="SVGID_3_" x1="45.481" x2="156.118" y1="368.904" y2="432.781" gradientUnits="userSpaceOnUse"><stop offset="0" style="stop-color:#fc6cff"/><stop offset=".262" style="stop-color:#ab6efe"/><stop offset=".621" style="stop-color:#6942fa"/><stop offset=".994" style="stop-color:#64e1ff"/></linearGradient><path d="M131.9,474.8c-40.6-22.9-70.5-54-94.1-92.5c11.5-8.4,24.1-14.2,37.6-17.8c21.7-5.7,43.2-4.4,64.3,2.9	c1.8,0.6,4.3,2.7,4.4,4.3c2.2,24.4,5.1,49-1.4,73.2C140.1,454.9,135.7,464.5,131.9,474.8z" class="st2"/><linearGradient id="SVGID_4_" x1="360.199" x2="468.526" y1="78.862" y2="141.405" gradientUnits="userSpaceOnUse"><stop offset="0" style="stop-color:#fc6cff"/><stop offset=".262" style="stop-color:#ab6efe"/><stop offset=".621" style="stop-color:#6942fa"/><stop offset=".994" style="stop-color:#64e1ff"/></linearGradient><path d="M384.3,37.1c40,22.1,69.1,53,91.8,91.1c-12.3,8.8-26,13-40.5,13.5c-20.4,0.7-40.9,0.2-62.7,0.2	C368.8,106.6,365.5,71.3,384.3,37.1z" class="st3"/></svg>