<svg xmlns="http://www.w3.org/2000/svg" xmlns:xlink="http://www.w3.org/1999/xlink" id="图层_1" x="0" y="0" version="1.1" viewBox="0 0 150 40" style="enable-background:new 0 0 150 40" xml:space="preserve"><style type="text/css">.st0{fill:url(#SVGID_1_)}.st1{fill:url(#SVGID_2_)}.st2{fill:url(#SVGID_3_)}.st3{fill:url(#SVGID_4_)}.st4{fill:url(#SVGID_5_)}.st5{fill:url(#SVGID_6_)}.st6{fill:url(#SVGID_7_)}.st7{fill:url(#SVGID_8_)}.st8{fill:url(#SVGID_9_)}</style><linearGradient id="SVGID_1_" x1="-10.688" x2="124.708" y1="19.526" y2="20.031" gradientUnits="userSpaceOnUse"><stop offset="0" style="stop-color:#fc6cff"/><stop offset=".262" style="stop-color:#ab6efe"/><stop offset=".621" style="stop-color:#6942fa"/><stop offset=".994" style="stop-color:#64e1ff"/></linearGradient><path d="M150.2,13.4c-0.1,0.9-0.3,1.7-0.4,2.6c-0.4,3.5-0.9,7-1.3,10.5c-0.1,0.7-0.2,1.5-0.3,2.2	c-0.4,0.2-0.6,0-0.8-0.3c-3.1-4.5-6.2-9-9.3-13.5c-0.1-0.1-0.2-0.3-0.4-0.5c-0.6,4.8-1.2,9.5-1.8,14.3c-0.4,0-0.9,0-1.3,0	c0.7-5.8,1.4-11.6,2.1-17.3c0.4-0.2,0.6,0,0.9,0.3c3.1,4.5,6.2,8.9,9.2,13.4c0.1,0.2,0.2,0.3,0.4,0.6c0.6-4.8,1.2-9.6,1.8-14.3	c0.4,0,0.8,0,1.1,0C150.2,12.1,150.2,12.7,150.2,13.4z" class="st0"/><linearGradient id="SVGID_2_" x1="-10.688" x2="124.707" y1="19.706" y2="20.211" gradientUnits="userSpaceOnUse"><stop offset="0" style="stop-color:#fc6cff"/><stop offset=".262" style="stop-color:#ab6efe"/><stop offset=".621" style="stop-color:#6942fa"/><stop offset=".994" style="stop-color:#64e1ff"/></linearGradient><path d="M51.4,20.8c0.4-3.3,0.8-6.6,1.2-9.8c1.7,0,3.4,0,5.2,0c-0.1,1.1-0.2,2.1-0.4,3.1c-0.4,3.5-0.9,7-1.3,10.5	c-0.2,1.3-0.3,2.5-0.5,3.8c0,0.2-0.1,0.3-0.4,0.3c-1.5,0-3.1,0-4.6,0c-0.3,0-0.4-0.2-0.5-0.4c-2.4-4.3-4.7-8.7-7.1-13	c-0.3-0.6-0.6-1.2-1-1.7c0.2,0.6,0.5,1.2,0.7,1.8c0.6,1.5,1.2,3,1.8,4.5c0.1,0.2,0.1,0.5,0.1,0.7c-0.3,2.6-0.6,5.2-1,7.8	c0,0.1-0.2,0.3-0.3,0.3c-1.6,0-3.2,0-4.9,0c0.1-0.8,0.2-1.5,0.2-2.2c0.5-4.1,1-8.1,1.5-12.2c0.1-1,0.3-2.1,0.4-3.1	c0-0.3,0.1-0.4,0.4-0.4c1.5,0,3,0,4.5,0c0.2,0,0.4,0.2,0.5,0.4c1.7,3,3.3,5.9,5,8.9C51.2,20.4,51.3,20.6,51.4,20.8z" class="st1"/><linearGradient id="SVGID_3_" x1="-10.689" x2="124.707" y1="19.866" y2="20.371" gradientUnits="userSpaceOnUse"><stop offset="0" style="stop-color:#fc6cff"/><stop offset=".262" style="stop-color:#ab6efe"/><stop offset=".621" style="stop-color:#6942fa"/><stop offset=".994" style="stop-color:#64e1ff"/></linearGradient><path d="M18.7,15.8c-1.8,0.3-3.6,0.6-5.3,0.9c0,0-0.1,0-0.1-0.1c-0.6-1.6-1.8-2.2-3.5-2c-1.5,0.2-2.6,1.1-3.2,2.4	c-0.8,1.8-1.1,3.7-0.7,5.6c0.3,1.5,1.3,2.3,2.8,2.5c1.5,0.2,2.9-0.3,4.2-1.1c0.1-0.1,0.2-0.2,0.2-0.3c0.1-0.5,0.1-0.9,0.2-1.5	c-0.6,0-1.2,0-1.8,0c-0.6,0-1.2,0-1.8,0c0.2-1.2,0.3-2.4,0.4-3.7c2.8,0,5.6,0,8.5,0c-0.1,0.8-0.2,1.7-0.3,2.5	c-0.2,1.5-0.4,3-0.5,4.5c0,0.4-0.2,0.6-0.5,0.8c-1.9,1.1-3.8,2.1-6,2.4c-1.9,0.3-3.8,0.3-5.7-0.1c-2.8-0.6-4.5-2.4-5.1-5.1	c-0.7-3.3-0.1-6.4,1.8-9.1c1.7-2.4,4.2-3.7,7.2-3.8c1.6-0.1,3.2,0,4.8,0.2C16.8,11.3,18.4,13.1,18.7,15.8z" class="st2"/><linearGradient id="SVGID_4_" x1="-10.688" x2="124.707" y1="19.622" y2="20.127" gradientUnits="userSpaceOnUse"><stop offset="0" style="stop-color:#fc6cff"/><stop offset=".262" style="stop-color:#ab6efe"/><stop offset=".621" style="stop-color:#6942fa"/><stop offset=".994" style="stop-color:#64e1ff"/></linearGradient><path d="M65.7,21.3c-0.1,1.2-0.3,2.3-0.4,3.5c3.2,0,6.3,0,9.5,0c-0.2,1.4-0.3,2.7-0.5,4c-5,0-10,0-15,0	C60,22.9,60.7,17,61.5,11c4.9,0,9.8,0,14.8,0c-0.2,1.3-0.3,2.5-0.5,3.8c-3.1,0-6.1,0-9.2,0c-0.1,0.9-0.2,1.9-0.4,2.8	c2.9,0,5.7,0,8.6,0c-0.1,1.2-0.3,2.3-0.4,3.4c0,0.1-0.3,0.2-0.4,0.2c-1.6,0-3.2,0-4.7,0c-1,0-1.9,0-2.9,0	C66.1,21.3,65.9,21.3,65.7,21.3z" class="st3"/><linearGradient id="SVGID_5_" x1="-10.689" x2="124.707" y1="19.767" y2="20.272" gradientUnits="userSpaceOnUse"><stop offset="0" style="stop-color:#fc6cff"/><stop offset=".262" style="stop-color:#ab6efe"/><stop offset=".621" style="stop-color:#6942fa"/><stop offset=".994" style="stop-color:#64e1ff"/></linearGradient><path d="M27.1,21.3c-0.1,1.2-0.3,2.3-0.4,3.5c3.2,0,6.3,0,9.5,0c-0.2,1.4-0.3,2.7-0.5,4c-5,0-10,0-15,0	c0.7-5.9,1.5-11.8,2.2-17.7c4.9,0,9.8,0,14.8,0c-0.2,1.3-0.3,2.5-0.5,3.8c-3.1,0-6.1,0-9.2,0c-0.1,0.9-0.2,1.8-0.4,2.8	c2.9,0,5.7,0,8.6,0c-0.1,1.2-0.3,2.4-0.4,3.6C32.8,21.3,29.9,21.3,27.1,21.3z" class="st4"/><linearGradient id="SVGID_6_" x1="-10.688" x2="124.707" y1="19.689" y2="20.194" gradientUnits="userSpaceOnUse"><stop offset="0" style="stop-color:#fc6cff"/><stop offset=".262" style="stop-color:#ab6efe"/><stop offset=".621" style="stop-color:#6942fa"/><stop offset=".994" style="stop-color:#64e1ff"/></linearGradient><path d="M108,20.9c-0.2,0-0.4,0-0.5,0c-3.3,0-6.7,0-10,0c-0.4,0-0.5,0.1-0.6,0.5c-0.3,2.3-0.6,4.6-0.8,7	c0,0.1-0.1,0.2-0.1,0.4c-0.4,0-0.9,0-1.3,0c0.1-1.2,0.3-2.3,0.4-3.4c0.4-3.2,0.8-6.4,1.2-9.6c0.2-1.3,0.3-2.7,0.5-4	c0-0.1,0.2-0.3,0.3-0.3c0.3,0,0.7,0,1.1,0c-0.3,2.8-0.7,5.5-1,8.2c0.2,0,0.4,0,0.5,0c3.4,0,6.7,0,10.1,0c0.4,0,0.5-0.1,0.6-0.5	c0.3-2.6,0.6-5.1,0.9-7.7c0.4,0,0.9,0,1.3,0c-0.7,5.8-1.4,11.5-2.1,17.3c-0.4,0-0.9,0-1.3,0C107.3,26.2,107.7,23.6,108,20.9z" class="st5"/><linearGradient id="SVGID_7_" x1="-10.688" x2="124.707" y1="19.642" y2="20.148" gradientUnits="userSpaceOnUse"><stop offset="0" style="stop-color:#fc6cff"/><stop offset=".262" style="stop-color:#ab6efe"/><stop offset=".621" style="stop-color:#6942fa"/><stop offset=".994" style="stop-color:#64e1ff"/></linearGradient><path d="M127.5,28.8c-0.4,0-0.8,0-1.2,0c-0.1,0-0.3-0.2-0.3-0.3c-0.4-1.2-0.8-2.3-1.1-3.5c0-0.1-0.1-0.3-0.1-0.4	c-0.4,0-0.8,0-1.2,0c-2.9,0-5.8,0-8.7,0c-0.4,0-0.6,0.1-0.8,0.5c-0.6,1.1-1.3,2.2-1.9,3.3c-0.2,0.4-0.4,0.5-0.8,0.5	c-0.3,0-0.5,0-0.9,0c0.1-0.2,0.2-0.3,0.2-0.5c3.2-5.5,6.3-11,9.5-16.6c0.2-0.3,0.3-0.4,0.7-0.4c1,0,1,0,1.4,1	c1.7,5.3,3.4,10.6,5.2,15.8C127.4,28.4,127.4,28.6,127.5,28.8z M124.3,23.3c-1.1-3.5-2.2-7-3.4-10.6c-2,3.6-4,7-6,10.6	C118.1,23.3,121.2,23.3,124.3,23.3z" class="st6"/><linearGradient id="SVGID_8_" x1="-10.689" x2="124.707" y1="19.739" y2="20.245" gradientUnits="userSpaceOnUse"><stop offset="0" style="stop-color:#fc6cff"/><stop offset=".262" style="stop-color:#ab6efe"/><stop offset=".621" style="stop-color:#6942fa"/><stop offset=".994" style="stop-color:#64e1ff"/></linearGradient><path d="M90.9,25.6c0.3,0.3,0.5,0.5,0.8,0.8c-1.1,1-2.3,1.7-3.7,2.1c-2.3,0.7-4.5,0.7-6.7-0.2c-2.4-1-3.8-3-4.1-5.5	c-0.4-3.7,0.7-7,3.7-9.4c3-2.4,6.4-2.8,10-1.4c0.9,0.4,1.7,1,2.4,1.8c-0.3,0.3-0.7,0.5-1,0.8c-0.1,0-0.1-0.1-0.2-0.1	c-1.4-1.4-3-2-5-2c-7,0-9.6,6.5-8.4,10.8c0.6,2.4,2.5,4.1,5,4.4C86.4,28,88.8,27.3,90.9,25.6z" class="st7"/><linearGradient id="SVGID_9_" x1="-10.688" x2="124.708" y1="19.59" y2="20.095" gradientUnits="userSpaceOnUse"><stop offset="0" style="stop-color:#fc6cff"/><stop offset=".262" style="stop-color:#ab6efe"/><stop offset=".621" style="stop-color:#6942fa"/><stop offset=".994" style="stop-color:#64e1ff"/></linearGradient><path d="M130.8,28.8c-0.5,0-0.9,0-1.3,0c0.7-5.8,1.4-11.5,2.1-17.3c0.4,0,0.8,0,1.3,0C132.2,17.2,131.5,23,130.8,28.8z" class="st8"/></svg>