<svg xmlns="http://www.w3.org/2000/svg" xmlns:xlink="http://www.w3.org/1999/xlink" x="0" y="0" version="1.1" viewBox="0 0 267.3 50.6" style="enable-background:new 0 0 267.3 50.6" xml:space="preserve"><style type="text/css">.st0{fill:#fff}.st1{fill:url(#SVGID_1_)}.st2{fill:url(#SVGID_2_)}.st3{fill:url(#SVGID_3_)}.st4{fill:url(#SVGID_4_)}</style><title>logo</title><g><path d="M263,16.1c-0.2,1.2-0.4,2.4-0.5,3.5c-0.6,4.8-1.2,9.6-1.8,14.4c-0.1,1-0.2,2-0.4,3c-0.6,0.3-0.8,0-1.1-0.4 c-4.2-6.1-8.5-12.2-12.7-18.4c-0.1-0.2-0.3-0.4-0.5-0.7c-0.8,6.6-1.6,13-2.4,19.5c-0.6,0-1.2,0-1.8,0c1-7.9,1.9-15.8,2.9-23.6 c0.6-0.2,0.9,0,1.2,0.5c4.2,6.1,8.4,12.2,12.6,18.3c0.1,0.2,0.3,0.4,0.6,0.8c0.8-6.6,1.6-13.1,2.4-19.6c0.5,0,1,0,1.5,0 C263,14.3,263,15.2,263,16.1z" class="st0"/><path d="M128.1,26.2c0.6-4.6,1.1-9,1.6-13.4c2.4,0,4.7,0,7.1,0c-0.2,1.5-0.3,2.9-0.5,4.3c-0.6,4.8-1.2,9.6-1.8,14.4 c-0.2,1.7-0.4,3.4-0.6,5.2c0,0.3-0.2,0.4-0.5,0.4c-2.1,0-4.2,0-6.3,0c-0.4,0-0.5-0.3-0.7-0.5c-3.2-5.9-6.4-11.8-9.6-17.8 c-0.4-0.8-0.9-1.6-1.4-2.3c0.3,0.8,0.6,1.6,1,2.4c0.8,2,1.7,4.1,2.5,6.1c0.1,0.3,0.2,0.6,0.2,0.9c-0.4,3.6-0.9,7.1-1.3,10.7 c0,0.2-0.2,0.5-0.4,0.5c-2.2,0-4.4,0-6.7,0c0.1-1,0.2-2,0.3-3c0.7-5.5,1.4-11.1,2-16.6c0.2-1.4,0.4-2.8,0.5-4.2 c0-0.4,0.2-0.5,0.6-0.5c2,0,4.1,0,6.1,0c0.2,0,0.6,0.3,0.7,0.5c2.3,4,4.5,8.1,6.8,12.1C127.8,25.7,127.9,25.9,128.1,26.2z" class="st0"/><path d="M83.4,19.3c-2.5,0.4-4.9,0.9-7.3,1.3c-0.1,0-0.1-0.1-0.1-0.1c-0.9-2.2-2.4-3.1-4.8-2.7c-2,0.3-3.5,1.4-4.3,3.3 c-1.1,2.4-1.4,5-1,7.7c0.4,2,1.8,3.2,3.8,3.4c2.1,0.2,4-0.4,5.8-1.5c0.1-0.1,0.2-0.2,0.3-0.4c0.1-0.6,0.2-1.3,0.3-2 c-0.9,0-1.7,0-2.5,0c-0.8,0-1.6,0-2.5,0c0.2-1.7,0.4-3.3,0.6-5c3.9,0,7.7,0,11.6,0c-0.1,1.2-0.3,2.3-0.4,3.4 c-0.2,2-0.5,4.1-0.7,6.1c-0.1,0.5-0.3,0.9-0.7,1.2c-2.5,1.5-5.2,2.8-8.1,3.2c-2.6,0.4-5.2,0.4-7.8-0.2c-3.8-0.8-6.1-3.2-6.9-7 c-0.9-4.5-0.2-8.7,2.5-12.4c2.4-3.3,5.7-5,9.8-5.2c2.2-0.1,4.4,0,6.5,0.2C80.8,13.2,83,15.7,83.4,19.3z" class="st0"/><path d="M147.6,26.9c-0.2,1.6-0.4,3.2-0.6,4.8c4.4,0,8.6,0,13,0c-0.2,1.9-0.4,3.6-0.7,5.5c-6.8,0-13.6,0-20.5,0 c1-8.1,2-16.1,3-24.2c6.7,0,13.4,0,20.1,0c-0.2,1.7-0.4,3.4-0.6,5.1c-4.2,0-8.4,0-12.6,0c-0.2,1.3-0.3,2.5-0.5,3.9 c3.9,0,7.8,0,11.7,0c-0.2,1.6-0.4,3.1-0.6,4.7c0,0.1-0.4,0.3-0.6,0.3c-2.2,0-4.3,0-6.5,0c-1.3,0-2.6,0-3.9,0 C148.1,26.9,147.9,26.9,147.6,26.9z" class="st0"/><path d="M94.8,26.8c-0.2,1.6-0.4,3.2-0.6,4.8c4.3,0,8.6,0,13,0c-0.2,1.9-0.4,3.6-0.7,5.5c-6.8,0-13.6,0-20.5,0 c1-8.1,2-16.1,3-24.2c6.7,0,13.4,0,20.1,0c-0.2,1.7-0.4,3.4-0.6,5.1c-4.2,0-8.4,0-12.6,0c-0.2,1.3-0.3,2.5-0.5,3.8 c3.9,0,7.7,0,11.7,0c-0.2,1.7-0.4,3.3-0.6,4.9C102.6,26.8,98.8,26.8,94.8,26.8z" class="st0"/><path d="M205.3,26.4c-0.3,0-0.5,0-0.7,0c-4.6,0-9.1,0-13.7,0c-0.6,0-0.8,0.1-0.8,0.7c-0.4,3.2-0.8,6.3-1.2,9.5 c0,0.2-0.1,0.3-0.1,0.5c-0.6,0-1.2,0-1.8,0c0.2-1.6,0.4-3.1,0.6-4.7c0.5-4.4,1.1-8.8,1.6-13.2c0.2-1.8,0.4-3.6,0.7-5.4 c0-0.2,0.3-0.4,0.4-0.4c0.5-0.1,0.9,0,1.4,0c-0.5,3.8-0.9,7.5-1.4,11.3c0.3,0,0.5,0,0.7,0c4.6,0,9.2,0,13.7,0 c0.6,0,0.7-0.2,0.8-0.7c0.4-3.5,0.8-7,1.3-10.6c0.6,0,1.2,0,1.8,0c-1,7.9-1.9,15.8-2.9,23.7c-0.6,0-1.2,0-1.8,0 C204.4,33.5,204.9,30,205.3,26.4z" class="st0"/><path d="M231.9,37.1c-0.6,0-1.1,0-1.6,0c-0.2,0-0.4-0.3-0.5-0.5c-0.5-1.6-1-3.2-1.6-4.8c-0.1-0.2-0.1-0.4-0.2-0.6 c-0.5,0-1.1,0-1.6,0c-3.9,0-7.9,0-11.8,0c-0.6,0-0.9,0.2-1.1,0.7c-0.8,1.5-1.7,3-2.5,4.6c-0.3,0.5-0.6,0.7-1.1,0.6 c-0.4,0-0.7,0-1.2,0c0.1-0.3,0.2-0.4,0.3-0.6c4.3-7.5,8.6-15.1,12.9-22.6c0.2-0.4,0.5-0.5,0.9-0.5c1.4,0,1.4,0,1.8,1.4 c2.4,7.2,4.7,14.4,7.1,21.6C231.8,36.6,231.8,36.8,231.9,37.1z M227.6,29.6c-1.5-4.8-3-9.5-4.6-14.4c-2.8,4.9-5.4,9.6-8.1,14.4 C219.1,29.6,223.3,29.6,227.6,29.6z" class="st0"/><path d="M182,32.7c0.4,0.4,0.7,0.7,1.1,1.1c-1.5,1.3-3.1,2.3-5,2.9c-3.1,1-6.2,1-9.2-0.3c-3.3-1.4-5.2-4-5.6-7.5 c-0.6-5.1,0.9-9.6,5-12.8c4.1-3.2,8.7-3.9,13.6-1.9c1.3,0.5,2.4,1.4,3.3,2.5c-0.5,0.4-0.9,0.7-1.3,1.1c-0.1-0.1-0.2-0.1-0.2-0.2 c-1.8-1.9-4.2-2.8-6.8-2.8c-9.6,0-13.1,8.9-11.5,14.8c0.9,3.3,3.4,5.5,6.9,6C175.9,36.1,179.1,35.1,182,32.7z" class="st0"/><path d="M236.5,37.1c-0.6,0-1.2,0-1.8,0c1-7.9,1.9-15.8,2.9-23.7c0.6,0,1.2,0,1.8,0C238.4,21.3,237.4,29.2,236.5,37.1z" class="st0"/><g><linearGradient id="SVGID_1_" x1="17.968" x2="45.66" y1="24.369" y2="40.357" gradientUnits="userSpaceOnUse"><stop offset="0" style="stop-color:#fc6cff"/><stop offset=".262" style="stop-color:#ab6efe"/><stop offset=".621" style="stop-color:#6942fa"/><stop offset=".994" style="stop-color:#64e1ff"/></linearGradient><path d="M19.1,49.8c-0.6-0.1-1.2-0.4-1.9-0.6c1.2-4.1,1.5-8.3,1.2-12.5c1,0,1.9,0,2.8,0c2.2,0,4.3,0.1,6.4-0.4 C33,35.1,37,30,36.4,24c-0.1-1.3-0.1-1.3-1.4-1.3c-3.3,0-6.5,0-9.8,0c-1.7,0-2.4,0.7-2.7,2.4c-0.1,0.7-0.1,1.3-0.1,2.1 c2.9,0,5.7,0,8.6,0c-0.1,0.5-0.2,0.9-0.4,1.3c-1,1.9-2.5,3.2-4.7,3.3c-2.5,0.1-5,0-7.6,0c0,0-0.1-0.1-0.1-0.1 c0.1-2.6,0.2-5.2,0.4-7.7c0.3-2.8,2.1-4.5,4.9-5.1c1-0.2,2-0.2,3-0.3c4.9,0,9.9,0,14.8,0c2.6,0,5.1-0.1,7.5-1.6 c0.4,1.5,0.8,2.8,1.1,4.1c2.2,14-7,26.7-21,29.1C28.3,50.4,24.7,51.1,19.1,49.8z" class="st1"/><linearGradient id="SVGID_2_" x1="4.706" x2="26.635" y1="10.021" y2="22.682" gradientUnits="userSpaceOnUse"><stop offset="0" style="stop-color:#fc6cff"/><stop offset=".262" style="stop-color:#ab6efe"/><stop offset=".621" style="stop-color:#6942fa"/><stop offset=".994" style="stop-color:#64e1ff"/></linearGradient><path d="M0.4,20C2.7,9.4,11.1,1.7,21.8,0.2c3.7-0.5,7.3-0.2,10.8,1c0.2,0.1,0.3,0.1,0.5,0.2c0,0,0.1,0,0.1,0.1 c0,0,0,0.1,0,0.1c-1.2,2-1.5,4.1-1.5,6.4c0,1.7,0,3.4,0,5.2c0,0.2,0,0.5-0.1,0.8c-1.9,0-3.7,0.1-5.6,0c-1.9-0.1-3.8,0.1-5.6,1 c-4.4,2.1-6.5,5.8-6.7,10.6c-0.1,2.1,0,4.2,0,6.3c-0.2,0-0.5,0-0.7,0C9.3,31.6,5.5,31.9,1.8,33c-0.5,0.1-0.7,0-0.8-0.4 C-0.6,27.2,0.1,21.2,0.4,20z" class="st2"/><linearGradient id="SVGID_3_" x1="3.986" x2="15.044" y1="36.643" y2="43.028" gradientUnits="userSpaceOnUse"><stop offset="0" style="stop-color:#fc6cff"/><stop offset=".262" style="stop-color:#ab6efe"/><stop offset=".621" style="stop-color:#6942fa"/><stop offset=".994" style="stop-color:#64e1ff"/></linearGradient><path d="M12.6,47.2c-4.1-2.3-7-5.4-9.4-9.2c1.1-0.8,2.4-1.4,3.8-1.8c2.2-0.6,4.3-0.4,6.4,0.3c0.2,0.1,0.4,0.3,0.4,0.4 c0.2,2.4,0.5,4.9-0.1,7.3C13.4,45.2,13,46.2,12.6,47.2z" class="st3"/><linearGradient id="SVGID_4_" x1="35.442" x2="46.269" y1="7.654" y2="13.905" gradientUnits="userSpaceOnUse"><stop offset="0" style="stop-color:#fc6cff"/><stop offset=".262" style="stop-color:#ab6efe"/><stop offset=".621" style="stop-color:#6942fa"/><stop offset=".994" style="stop-color:#64e1ff"/></linearGradient><path d="M37.8,3.5c4,2.2,6.9,5.3,9.2,9.1c-1.2,0.9-2.6,1.3-4.1,1.3c-2,0.1-4.1,0-6.3,0C36.3,10.4,36,6.9,37.8,3.5z" class="st4"/></g></g></svg>