<?xml version="1.0" encoding="utf-8"?>
<!-- Generator: Adobe Illustrator 24.0.2, SVG Export Plug-In . SVG Version: 6.00 Build 0)  -->
<svg version="1.1" id="图层_1" xmlns="http://www.w3.org/2000/svg" xmlns:xlink="http://www.w3.org/1999/xlink" x="0px" y="0px"
	 viewBox="0 0 150 40" style="enable-background:new 0 0 150 40;" xml:space="preserve">
<style type="text/css">
	.st0{fill:#FFFFFF;}
</style>
<path d="M-186.2,112.5c-0.1,0.4-0.1,0.7-0.2,1.1c-0.2,1.5-0.4,3-0.5,4.5c0,0.3-0.1,0.6-0.1,0.9c-0.2,0.1-0.3,0-0.3-0.1
	c-1.3-1.9-2.6-3.8-3.9-5.7c0-0.1-0.1-0.1-0.2-0.2c-0.3,2-0.5,4-0.7,6.1c-0.2,0-0.4,0-0.6,0c0.3-2.5,0.6-4.9,0.9-7.3
	c0.2-0.1,0.3,0,0.4,0.1c1.3,1.9,2.6,3.8,3.9,5.7c0,0.1,0.1,0.1,0.2,0.2c0.3-2.1,0.5-4.1,0.7-6.1c0.2,0,0.3,0,0.5,0
	C-186.2,111.9-186.2,112.2-186.2,112.5z"/>
<path d="M-228,115.6c0.2-1.4,0.3-2.8,0.5-4.1c0.7,0,1.5,0,2.2,0c-0.1,0.5-0.1,0.9-0.2,1.3c-0.2,1.5-0.4,3-0.5,4.5
	c-0.1,0.5-0.1,1.1-0.2,1.6c0,0.1-0.1,0.1-0.2,0.1c-0.6,0-1.3,0-1.9,0c-0.1,0-0.2-0.1-0.2-0.2c-1-1.8-2-3.7-3-5.5
	c-0.1-0.2-0.3-0.5-0.4-0.7c0.1,0.3,0.2,0.5,0.3,0.8c0.3,0.6,0.5,1.3,0.8,1.9c0,0.1,0.1,0.2,0.1,0.3c-0.1,1.1-0.3,2.2-0.4,3.3
	c0,0.1-0.1,0.1-0.1,0.1c-0.7,0-1.4,0-2.1,0c0-0.3,0.1-0.6,0.1-0.9c0.2-1.7,0.4-3.4,0.6-5.1c0.1-0.4,0.1-0.9,0.2-1.3
	c0-0.1,0.1-0.2,0.2-0.2c0.6,0,1.3,0,1.9,0c0.1,0,0.2,0.1,0.2,0.2c0.7,1.3,1.4,2.5,2.1,3.8C-228.1,115.4-228.1,115.5-228,115.6z"/>
<path d="M-241.9,113.5c-0.8,0.1-1.5,0.3-2.3,0.4c0,0,0,0,0,0c-0.3-0.7-0.7-1-1.5-0.8c-0.6,0.1-1.1,0.4-1.3,1
	c-0.3,0.8-0.4,1.6-0.3,2.4c0.1,0.6,0.6,1,1.2,1.1c0.7,0.1,1.2-0.1,1.8-0.4c0,0,0.1-0.1,0.1-0.1c0-0.2,0.1-0.4,0.1-0.6
	c-0.3,0-0.5,0-0.8,0c-0.3,0-0.5,0-0.8,0c0.1-0.5,0.1-1,0.2-1.6c1.2,0,2.4,0,3.6,0c0,0.4-0.1,0.7-0.1,1.1c-0.1,0.6-0.2,1.3-0.2,1.9
	c0,0.2-0.1,0.3-0.2,0.4c-0.8,0.5-1.6,0.9-2.5,1c-0.8,0.1-1.6,0.1-2.4,0c-1.2-0.3-1.9-1-2.1-2.2c-0.3-1.4,0-2.7,0.8-3.9
	c0.7-1,1.8-1.6,3-1.6c0.7,0,1.3,0,2,0.1C-242.7,111.6-242,112.3-241.9,113.5z"/>
<path d="M-222,115.8c-0.1,0.5-0.1,1-0.2,1.5c1.4,0,2.7,0,4,0c-0.1,0.6-0.1,1.1-0.2,1.7c-2.1,0-4.2,0-6.4,0c0.3-2.5,0.6-5,0.9-7.5
	c2.1,0,4.2,0,6.2,0c-0.1,0.5-0.1,1.1-0.2,1.6c-1.3,0-2.6,0-3.9,0c-0.1,0.4-0.1,0.8-0.2,1.2c1.2,0,2.4,0,3.6,0
	c-0.1,0.5-0.1,1-0.2,1.4c0,0-0.1,0.1-0.2,0.1c-0.7,0-1.3,0-2,0c-0.4,0-0.8,0-1.2,0C-221.8,115.8-221.9,115.8-222,115.8z"/>
<path d="M-238.4,115.8c-0.1,0.5-0.1,1-0.2,1.5c1.3,0,2.7,0,4,0c-0.1,0.6-0.1,1.1-0.2,1.7c-2.1,0-4.2,0-6.4,0c0.3-2.5,0.6-5,0.9-7.5
	c2.1,0,4.2,0,6.2,0c-0.1,0.5-0.1,1.1-0.2,1.6c-1.3,0-2.6,0-3.9,0c0,0.4-0.1,0.8-0.2,1.2c1.2,0,2.4,0,3.6,0c-0.1,0.5-0.1,1-0.2,1.5
	C-236,115.8-237.2,115.8-238.4,115.8z"/>
<path d="M-204.1,115.6c-0.1,0-0.2,0-0.2,0c-1.4,0-2.8,0-4.2,0c-0.2,0-0.2,0-0.3,0.2c-0.1,1-0.2,2-0.4,3c0,0.1,0,0.1,0,0.2
	c-0.2,0-0.4,0-0.6,0c0.1-0.5,0.1-1,0.2-1.5c0.2-1.4,0.3-2.7,0.5-4.1c0.1-0.6,0.1-1.1,0.2-1.7c0-0.1,0.1-0.1,0.1-0.1
	c0.1,0,0.3,0,0.4,0c-0.1,1.2-0.3,2.3-0.4,3.5c0.1,0,0.1,0,0.2,0c1.4,0,2.8,0,4.3,0c0.2,0,0.2-0.1,0.2-0.2c0.1-1.1,0.3-2.2,0.4-3.3
	c0.2,0,0.4,0,0.6,0c-0.3,2.4-0.6,4.9-0.9,7.3c-0.2,0-0.4,0-0.6,0C-204.4,117.9-204.3,116.8-204.1,115.6z"/>
<path d="M-195.9,119c-0.2,0-0.4,0-0.5,0c-0.1,0-0.1-0.1-0.1-0.1c-0.2-0.5-0.3-1-0.5-1.5c0-0.1,0-0.1-0.1-0.2c-0.2,0-0.3,0-0.5,0
	c-1.2,0-2.4,0-3.7,0c-0.2,0-0.3,0.1-0.4,0.2c-0.3,0.5-0.5,0.9-0.8,1.4c-0.1,0.2-0.2,0.2-0.3,0.2c-0.1,0-0.2,0-0.4,0
	c0-0.1,0.1-0.1,0.1-0.2c1.3-2.3,2.7-4.7,4-7c0.1-0.1,0.1-0.2,0.3-0.2c0.4,0,0.4,0,0.6,0.4c0.7,2.2,1.5,4.5,2.2,6.7
	C-195.9,118.8-195.9,118.9-195.9,119z M-197.2,116.6c-0.5-1.5-0.9-3-1.4-4.5c-0.9,1.5-1.7,3-2.5,4.5
	C-199.8,116.6-198.5,116.6-197.2,116.6z"/>
<path d="M-211.3,117.6c0.1,0.1,0.2,0.2,0.3,0.4c-0.5,0.4-1,0.7-1.6,0.9c-1,0.3-1.9,0.3-2.9-0.1c-1-0.4-1.6-1.3-1.7-2.3
	c-0.2-1.6,0.3-3,1.6-4c1.3-1,2.7-1.2,4.2-0.6c0.4,0.2,0.7,0.4,1,0.8c-0.1,0.1-0.3,0.2-0.4,0.3c0,0-0.1,0-0.1-0.1
	c-0.6-0.6-1.3-0.9-2.1-0.9c-3,0-4.1,2.8-3.6,4.6c0.3,1,1.1,1.7,2.1,1.9C-213.2,118.7-212.2,118.4-211.3,117.6z"/>
<path d="M-194.5,119c-0.2,0-0.4,0-0.6,0c0.3-2.5,0.6-4.9,0.9-7.3c0.2,0,0.4,0,0.6,0C-193.9,114.1-194.2,116.5-194.5,119z"/>
<path class="st0" d="M150,13.5c-0.1,0.9-0.3,1.7-0.4,2.6c-0.4,3.5-0.9,7-1.3,10.5c-0.1,0.7-0.2,1.5-0.3,2.2c-0.4,0.2-0.6,0-0.8-0.3
	c-3.1-4.5-6.2-9-9.3-13.5c-0.1-0.1-0.2-0.3-0.4-0.5c-0.6,4.8-1.2,9.5-1.8,14.3c-0.4,0-0.9,0-1.3,0c0.7-5.8,1.4-11.6,2.1-17.3
	c0.4-0.2,0.6,0,0.9,0.3c3.1,4.5,6.2,8.9,9.2,13.4c0.1,0.2,0.2,0.3,0.4,0.6c0.6-4.8,1.2-9.6,1.8-14.3c0.4,0,0.8,0,1.1,0
	C150,12.1,150,12.8,150,13.5z"/>
<path class="st0" d="M51.2,20.9c0.4-3.3,0.8-6.6,1.2-9.8c1.7,0,3.4,0,5.2,0c-0.1,1.1-0.2,2.1-0.4,3.1c-0.4,3.5-0.9,7-1.3,10.5
	c-0.2,1.3-0.3,2.5-0.5,3.8c0,0.2-0.1,0.3-0.4,0.3c-1.5,0-3.1,0-4.6,0c-0.3,0-0.4-0.2-0.5-0.4c-2.4-4.3-4.7-8.7-7.1-13
	c-0.3-0.6-0.6-1.2-1-1.7c0.2,0.6,0.5,1.2,0.7,1.8c0.6,1.5,1.2,3,1.8,4.5c0.1,0.2,0.1,0.5,0.1,0.7c-0.3,2.6-0.6,5.2-1,7.8
	c0,0.1-0.2,0.3-0.3,0.3c-1.6,0-3.2,0-4.9,0c0.1-0.8,0.2-1.5,0.2-2.2c0.5-4.1,1-8.1,1.5-12.2c0.1-1,0.3-2.1,0.4-3.1
	c0-0.3,0.1-0.4,0.4-0.4c1.5,0,3,0,4.5,0c0.2,0,0.4,0.2,0.5,0.4c1.7,3,3.3,5.9,5,8.9C51,20.5,51.1,20.6,51.2,20.9z"/>
<path class="st0" d="M18.5,15.8c-1.8,0.3-3.6,0.6-5.3,0.9c0,0-0.1,0-0.1-0.1c-0.6-1.6-1.8-2.2-3.5-2C8.1,15,7,15.8,6.4,17.1
	c-0.8,1.8-1.1,3.7-0.7,5.6C6,24.2,7,25.1,8.5,25.2c1.5,0.2,2.9-0.3,4.2-1.1c0.1-0.1,0.2-0.2,0.2-0.3c0.1-0.5,0.1-0.9,0.2-1.5
	c-0.6,0-1.2,0-1.8,0c-0.6,0-1.2,0-1.8,0c0.2-1.2,0.3-2.4,0.4-3.7c2.8,0,5.6,0,8.5,0c-0.1,0.8-0.2,1.7-0.3,2.5
	c-0.2,1.5-0.4,3-0.5,4.5c0,0.4-0.2,0.6-0.5,0.8c-1.9,1.1-3.8,2.1-6,2.4c-1.9,0.3-3.8,0.3-5.7-0.1c-2.8-0.6-4.5-2.4-5.1-5.1
	c-0.7-3.3-0.1-6.4,1.8-9.1c1.7-2.4,4.2-3.7,7.2-3.8c1.6-0.1,3.2,0,4.8,0.2C16.6,11.4,18.2,13.2,18.5,15.8z"/>
<path class="st0" d="M65.5,21.3c-0.1,1.2-0.3,2.3-0.4,3.5c3.2,0,6.3,0,9.5,0c-0.2,1.4-0.3,2.7-0.5,4c-5,0-10,0-15,0
	c0.7-5.9,1.5-11.8,2.2-17.7c4.9,0,9.8,0,14.8,0c-0.2,1.3-0.3,2.5-0.5,3.8c-3.1,0-6.1,0-9.2,0c-0.1,0.9-0.2,1.9-0.4,2.8
	c2.9,0,5.7,0,8.6,0c-0.1,1.2-0.3,2.3-0.4,3.4c0,0.1-0.3,0.2-0.4,0.2c-1.6,0-3.2,0-4.7,0c-1,0-1.9,0-2.9,0
	C65.9,21.3,65.7,21.3,65.5,21.3z"/>
<path class="st0" d="M26.9,21.3c-0.1,1.2-0.3,2.3-0.4,3.5c3.2,0,6.3,0,9.5,0c-0.2,1.4-0.3,2.7-0.5,4c-5,0-10,0-15,0
	c0.7-5.9,1.5-11.8,2.2-17.7c4.9,0,9.8,0,14.8,0c-0.2,1.3-0.3,2.5-0.5,3.8c-3.1,0-6.1,0-9.2,0c-0.1,0.9-0.2,1.8-0.4,2.8
	c2.9,0,5.7,0,8.6,0c-0.1,1.2-0.3,2.4-0.4,3.6C32.6,21.3,29.7,21.3,26.9,21.3z"/>
<path class="st0" d="M107.8,21c-0.2,0-0.4,0-0.5,0c-3.3,0-6.7,0-10,0c-0.4,0-0.5,0.1-0.6,0.5c-0.3,2.3-0.6,4.6-0.8,7
	c0,0.1-0.1,0.2-0.1,0.4c-0.4,0-0.9,0-1.3,0c0.1-1.2,0.3-2.3,0.4-3.4c0.4-3.2,0.8-6.4,1.2-9.6c0.2-1.3,0.3-2.7,0.5-4
	c0-0.1,0.2-0.3,0.3-0.3c0.3,0,0.7,0,1.1,0c-0.3,2.8-0.7,5.5-1,8.2c0.2,0,0.4,0,0.5,0c3.4,0,6.7,0,10.1,0c0.4,0,0.5-0.1,0.6-0.5
	c0.3-2.6,0.6-5.1,0.9-7.7c0.4,0,0.9,0,1.3,0c-0.7,5.8-1.4,11.5-2.1,17.3c-0.4,0-0.9,0-1.3,0C107.1,26.2,107.4,23.6,107.8,21z"/>
<path class="st0" d="M127.3,28.9c-0.4,0-0.8,0-1.2,0c-0.1,0-0.3-0.2-0.3-0.3c-0.4-1.2-0.8-2.3-1.1-3.5c0-0.1-0.1-0.3-0.1-0.4
	c-0.4,0-0.8,0-1.2,0c-2.9,0-5.8,0-8.7,0c-0.4,0-0.6,0.1-0.8,0.5c-0.6,1.1-1.3,2.2-1.9,3.3c-0.2,0.4-0.4,0.5-0.8,0.5
	c-0.3,0-0.5,0-0.9,0c0.1-0.2,0.2-0.3,0.2-0.5c3.2-5.5,6.3-11,9.5-16.6c0.2-0.3,0.3-0.4,0.7-0.4c1,0,1,0,1.4,1
	c1.7,5.3,3.4,10.6,5.2,15.8C127.2,28.5,127.2,28.6,127.3,28.9z M124.1,23.3c-1.1-3.5-2.2-7-3.4-10.6c-2,3.6-4,7-6,10.6
	C117.9,23.3,121,23.3,124.1,23.3z"/>
<path class="st0" d="M90.7,25.6c0.3,0.3,0.5,0.5,0.8,0.8c-1.1,1-2.3,1.7-3.7,2.1c-2.3,0.7-4.5,0.7-6.7-0.2c-2.4-1-3.8-3-4.1-5.5
	c-0.4-3.7,0.7-7,3.7-9.4c3-2.4,6.4-2.8,10-1.4c0.9,0.4,1.7,1,2.4,1.8c-0.3,0.3-0.7,0.5-1,0.8c-0.1,0-0.1-0.1-0.2-0.1
	c-1.4-1.4-3-2-5-2c-7,0-9.6,6.5-8.4,10.8c0.6,2.4,2.5,4.1,5,4.4C86.2,28.1,88.6,27.4,90.7,25.6z"/>
<path class="st0" d="M130.6,28.8c-0.5,0-0.9,0-1.3,0c0.7-5.8,1.4-11.5,2.1-17.3c0.4,0,0.8,0,1.3,0C132,17.3,131.3,23,130.6,28.8z"/>
</svg>
