<?xml version="1.0" encoding="utf-8"?>
<!-- Generator: Adobe Illustrator 24.0.2, SVG Export Plug-In . SVG Version: 6.00 Build 0)  -->
<svg version="1.1" id="图层_1" xmlns="http://www.w3.org/2000/svg" xmlns:xlink="http://www.w3.org/1999/xlink" x="0px" y="0px"
	 viewBox="0 0 1920 905.3" style="enable-background:new 0 0 1920 905.3;" xml:space="preserve">
<style type="text/css">
	.st0{fill:none;}
	.st1{fill:#120667;}
	.st2{fill:#5333ED;}
	.st3{fill:url(#SVGID_1_);}
	.st4{fill:#2CD4D9;}
	.st5{opacity:0.1;}
	.st6{fill:url(#SVGID_2_);}
	.st7{fill:url(#SVGID_3_);}
	.st8{fill:url(#SVGID_4_);}
	.st9{fill:url(#SVGID_5_);}
	.st10{fill:url(#SVGID_6_);}
	.st11{fill:url(#SVGID_7_);}
	.st12{opacity:0.2;fill:#5333ED;enable-background:new    ;}
	.st13{fill:url(#SVGID_8_);}
	.st14{fill:url(#SVGID_9_);}
	.st15{fill:url(#SVGID_10_);}
	.st16{fill:url(#SVGID_11_);}
	.st17{fill:url(#SVGID_12_);}
	.st18{fill:none;stroke:#5333ED;stroke-miterlimit:10;}
	.st19{fill:url(#SVGID_13_);}
	.st20{fill:#1B0971;}
	.st21{fill:none;stroke:url(#SVGID_14_);stroke-miterlimit:10;}
	.st22{fill:#2F8DD3;}
	.st23{fill:url(#SVGID_15_);}
	.st24{fill:#DFE9F8;}
	.st25{fill:#EA3D63;}
	.st26{fill:url(#SVGID_16_);}
	.st27{fill:#FFD141;}
	.st28{fill:url(#SVGID_17_);}
	.st29{fill:#18A0AA;}
	.st30{fill:url(#SVGID_18_);}
	.st31{fill:#0C022F;}
	.st32{fill:url(#SVGID_19_);}
	.st33{fill:url(#SVGID_20_);}
	.st34{opacity:0.35;fill:#DFE9F8;enable-background:new    ;}
	.st35{fill:url(#SVGID_21_);}
	.st36{fill:url(#SVGID_22_);}
	.st37{fill:url(#SVGID_23_);}
	.st38{fill:url(#SVGID_24_);}
	.st39{fill:url(#SVGID_25_);}
	.st40{fill:url(#SVGID_26_);}
	.st41{fill:url(#SVGID_27_);}
	.st42{fill:url(#SVGID_28_);}
	.st43{fill:url(#SVGID_29_);}
	.st44{fill:url(#SVGID_30_);}
	.st45{fill:url(#SVGID_31_);}
	.st46{fill:url(#SVGID_32_);}
	.st47{fill:url(#SVGID_33_);}
	.st48{fill:url(#SVGID_34_);}
	.st49{fill:url(#SVGID_35_);}
	.st50{fill:url(#SVGID_36_);}
	.st51{fill:url(#SVGID_37_);}
	.st52{fill:url(#SVGID_38_);}
	.st53{fill:url(#SVGID_39_);}
	.st54{fill:url(#SVGID_40_);}
	.st55{fill:url(#SVGID_41_);}
	.st56{fill:url(#SVGID_42_);}
	.st57{fill:url(#SVGID_43_);}
	.st58{fill:url(#SVGID_44_);}
</style>
<pattern  y="905.3" width="88" height="88" patternUnits="userSpaceOnUse" id="h" viewBox="0 -88 88 88" style="overflow:visible;">
	<g>
		<rect y="-88" class="st0" width="88" height="88"/>
		<path class="st0" d="M0,0h88v-88H0V0z"/>
		<path class="st0" d="M0,0h88v-88H0V0z"/>
		<path class="st0" d="M0,0h88v-88H0V0z"/>
		<path class="st1" d="M0,0h88v-88H0V0z"/>
	</g>
</pattern>
<pattern  y="905.3" width="88" height="88" patternUnits="userSpaceOnUse" id="j" viewBox="0 -88 88 88" style="overflow:visible;">
	<g>
		<rect y="-88" class="st0" width="88" height="88"/>
		<path class="st0" d="M0,0h88v-88H0V0z"/>
		<path class="st0" d="M0,0h88v-88H0V0z"/>
		<path class="st0" d="M0,0h88v-88H0V0z"/>
		<path class="st2" d="M0,0h88v-88H0V0z"/>
	</g>
</pattern>
<pattern  y="905.3" width="88" height="88" patternUnits="userSpaceOnUse" id="l" viewBox="0 -88 88 88" style="overflow:visible;">
	<g>
		<rect y="-88" class="st0" width="88" height="88"/>
		<path class="st0" d="M0,0h88v-88H0V0z"/>
		<path class="st0" d="M0,0h88v-88H0V0z"/>
		<path class="st0" d="M0,0h88v-88H0V0z"/>
		<path class="st2" d="M0,0h88v-88H0V0z"/>
	</g>
</pattern>
<pattern  y="905.3" width="88" height="88" patternUnits="userSpaceOnUse" id="m" viewBox="0 -88 88 88" style="overflow:visible;">
	<g>
		<rect y="-88" class="st0" width="88" height="88"/>
		<path class="st0" d="M0,0h88v-88H0V0z"/>
		<path class="st0" d="M0,0h88v-88H0V0z"/>
		<path class="st0" d="M0,0h88v-88H0V0z"/>
		<path class="st2" d="M0,0h88v-88H0V0z"/>
	</g>
</pattern>
<pattern  y="905.3" width="88" height="88" patternUnits="userSpaceOnUse" id="n" viewBox="0 -88 88 88" style="overflow:visible;">
	<g>
		<rect y="-88" class="st0" width="88" height="88"/>
		<path class="st0" d="M0,0h88v-88H0V0z"/>
		<path class="st0" d="M0,0h88v-88H0V0z"/>
		<path class="st0" d="M0,0h88v-88H0V0z"/>
		<path class="st2" d="M0,0h88v-88H0V0z"/>
	</g>
</pattern>
<radialGradient id="SVGID_1_" cx="980.9" cy="-385.5355" r="323.6" gradientTransform="matrix(1 0 0 1 0 823.5)" gradientUnits="userSpaceOnUse">
	<stop  offset="0" style="stop-color:#2CD4D9"/>
	<stop  offset="0.3" style="stop-color:#2CD4D9;stop-opacity:0.91"/>
	<stop  offset="0.35" style="stop-color:#2CD4D9;stop-opacity:0.89"/>
	<stop  offset="0.71" style="stop-color:#2CD4D9;stop-opacity:0.58"/>
	<stop  offset="0.73" style="stop-color:#2CD4D9;stop-opacity:0.5"/>
	<stop  offset="0.78" style="stop-color:#2CD4D9;stop-opacity:0.32"/>
	<stop  offset="0.83" style="stop-color:#2CD4D9;stop-opacity:0.18"/>
	<stop  offset="0.89" style="stop-color:#2CD4D9;stop-opacity:8.000000e-02"/>
	<stop  offset="0.94" style="stop-color:#2CD4D9;stop-opacity:2.000000e-02"/>
	<stop  offset="0.98" style="stop-color:#2CD4D9;stop-opacity:0"/>
</radialGradient>
<circle class="st3" cx="980.9" cy="438" r="323.6"/>
<circle class="st4" cx="980.9" cy="438.1" r="246.9"/>
<circle class="st4" cx="980.9" cy="438.1" r="246.9"/>
<g class="st5">
	<linearGradient id="SVGID_2_" gradientUnits="userSpaceOnUse" x1="914.2947" y1="430.2516" x2="1180.4188" y2="583.8984">
		<stop  offset="0" style="stop-color:#FC6CFF"/>
		<stop  offset="0.2616" style="stop-color:#AB6EFE"/>
		<stop  offset="0.6207" style="stop-color:#6942FA"/>
		<stop  offset="0.9944" style="stop-color:#64E1FF"/>
	</linearGradient>
	<path class="st6" d="M925.4,675.1c-5.8-1.2-11.3-3.7-17.9-5.9c11.6-39.6,14.4-79.6,11.5-120.5c9.7,0,18.4,0.1,27,0
		c20.7-0.2,41.4,0.8,61.9-3.7c50.7-11.2,89.1-60.6,83.9-118.2c-1.1-12.1-1.3-12.1-13.2-12.1c-31.3,0.1-62.6,0-93.9,0.5
		c-16.3,0.2-23.2,6.6-25.5,22.7c-0.9,6.3-0.8,12.7-1.3,19.7c27.8,0,54.6,0,82.6,0c-1.4,4.7-2.1,8.8-3.8,12.3
		c-9.2,18.6-24.1,30.4-45.1,31.4c-24.2,1.2-48.4,0.3-72.6,0.3c-0.3-0.5-0.7-0.8-0.7-1.1c1.3-24.8,1.4-49.6,4.2-74.2
		c3-27,19.8-43.4,47.1-48.8c9.3-1.8,18.9-2.4,28.4-2.4c47.5-0.2,95-0.2,142.4,0c24.6,0.1,49-0.6,72.2-15.4
		c3.6,13.9,8,26.7,10.1,39.8c21.3,134.5-67.1,256.9-201.8,279.6C1013.4,680.4,979.3,686.7,925.4,675.1z"/>
	<linearGradient id="SVGID_3_" gradientUnits="userSpaceOnUse" x1="786.8497" y1="292.3686" x2="997.59" y2="414.0396">
		<stop  offset="0" style="stop-color:#FC6CFF"/>
		<stop  offset="0.2616" style="stop-color:#AB6EFE"/>
		<stop  offset="0.6207" style="stop-color:#6942FA"/>
		<stop  offset="0.9944" style="stop-color:#64E1FF"/>
	</linearGradient>
	<path class="st7" d="M745.2,388c22.4-101.6,103-175.7,205.9-189.6c35.5-4.8,70.2-2.4,104.1,9.9c1.6,0.6,3.1,1.2,4.6,1.8
		c0.4,0.1,0.7,0.5,1,0.7c0.1,0.4,0.4,0.9,0.2,1.1c-11.5,18.9-14.2,39.8-14.4,61.4c-0.1,16.5-0.1,33.1-0.1,49.6
		c0,2.2-0.3,4.5-0.6,7.6c-18,0-35.8,0.5-53.5-0.1c-18.7-0.6-36.9,1.2-53.9,9.3c-42.5,20.4-62.8,55.3-64.6,101.4
		c-0.8,20-0.1,40.1-0.1,61c-2.4,0-4.4,0.1-6.4,0c-36.7-2.4-72.8,1.1-108.2,11.4c-4.5,1.3-6.8,0.3-8.1-4.3
		C736.2,457.3,742.7,399.6,745.2,388z"/>
	<linearGradient id="SVGID_4_" gradientUnits="userSpaceOnUse" x1="779.9332" y1="548.2087" x2="886.2003" y2="609.562">
		<stop  offset="0" style="stop-color:#FC6CFF"/>
		<stop  offset="0.2616" style="stop-color:#AB6EFE"/>
		<stop  offset="0.6207" style="stop-color:#6942FA"/>
		<stop  offset="0.9944" style="stop-color:#64E1FF"/>
	</linearGradient>
	<path class="st8" d="M862.9,649.9c-39-22-67.7-51.9-90.4-88.9c11-8.1,23.1-13.6,36.1-17.1c20.8-5.5,41.5-4.2,61.7,2.8
		c1.7,0.6,4.1,2.6,4.3,4.1c2.1,23.5,4.9,47.1-1.3,70.3C870.8,630.8,866.6,640,862.9,649.9z"/>
	<linearGradient id="SVGID_5_" gradientUnits="userSpaceOnUse" x1="1082.2202" y1="269.6224" x2="1186.2688" y2="329.6949">
		<stop  offset="0" style="stop-color:#FC6CFF"/>
		<stop  offset="0.2616" style="stop-color:#AB6EFE"/>
		<stop  offset="0.6207" style="stop-color:#6942FA"/>
		<stop  offset="0.9944" style="stop-color:#64E1FF"/>
	</linearGradient>
	<path class="st9" d="M1105.4,229.5c38.4,21.3,66.4,50.9,88.2,87.5c-11.8,8.4-25,12.5-38.9,13c-19.6,0.6-39.3,0.2-60.2,0.2
		C1090.5,296.3,1087.3,262.3,1105.4,229.5z"/>
</g>
<circle class="st2" cx="1631.4" cy="318.3" r="15.2"/>
<linearGradient id="SVGID_6_" gradientUnits="userSpaceOnUse" x1="782.2988" y1="358.0665" x2="776.3011" y2="368.4625" gradientTransform="matrix(1 0 0 -1 0 1098.5289)">
	<stop  offset="0" style="stop-color:#5333ED"/>
	<stop  offset="1" style="stop-color:#2CD4D9"/>
</linearGradient>
<circle class="st10" cx="779.3" cy="735.3" r="6"/>
<linearGradient id="SVGID_7_" gradientUnits="userSpaceOnUse" x1="464.894" y1="675.3983" x2="453.5955" y2="694.9757" gradientTransform="matrix(1 0 0 -1 0 1098.5289)">
	<stop  offset="0" style="stop-color:#5333ED"/>
	<stop  offset="1" style="stop-color:#9B31F7"/>
</linearGradient>
<circle class="st11" cx="459.2" cy="413.3" r="11.3"/>
<circle class="st12" cx="1088.3" cy="298.1" r="8"/>
<circle class="st12" cx="1056.1" cy="251.9" r="18"/>
<linearGradient id="SVGID_8_" gradientUnits="userSpaceOnUse" x1="1368.6083" y1="590.7319" x2="1361.9094" y2="602.34" gradientTransform="matrix(1 0 0 -1 0 1098.5289)">
	<stop  offset="0" style="stop-color:#5333ED"/>
	<stop  offset="1" style="stop-color:#9B31F7"/>
</linearGradient>
<circle class="st13" cx="1365.3" cy="502.1" r="6.7"/>
<linearGradient id="SVGID_9_" gradientUnits="userSpaceOnUse" x1="410.0616" y1="660.977" x2="404.5816" y2="670.477" gradientTransform="matrix(1 0 0 -1 0 1098.5289)">
	<stop  offset="0" style="stop-color:#5333ED"/>
	<stop  offset="1" style="stop-color:#9B31F7"/>
</linearGradient>
<circle class="st14" cx="407.3" cy="432.8" r="5.5"/>
<linearGradient id="SVGID_10_" gradientUnits="userSpaceOnUse" x1="9.094947e-13" y1="1273.2645" x2="9.094947e-13" y2="1273.2645" gradientTransform="matrix(1 0 0 -1 0 1098.5289)">
	<stop  offset="0" style="stop-color:#5333ED"/>
	<stop  offset="1" style="stop-color:#9B31F7"/>
</linearGradient>
<path class="st15" d="M0-174.7"/>
<linearGradient id="SVGID_11_" gradientUnits="userSpaceOnUse" x1="9.094947e-13" y1="1273.2645" x2="9.094947e-13" y2="1273.2645" gradientTransform="matrix(1 0 0 -1 0 1098.5289)">
	<stop  offset="0" style="stop-color:#5333ED"/>
	<stop  offset="1" style="stop-color:#9B31F7"/>
</linearGradient>
<path class="st16" d="M0-174.7"/>
<linearGradient id="SVGID_12_" gradientUnits="userSpaceOnUse" x1="9.094947e-13" y1="1273.2645" x2="9.094947e-13" y2="1273.2645" gradientTransform="matrix(1 0 0 -1 0 1098.5289)">
	<stop  offset="0" style="stop-color:#5333ED"/>
	<stop  offset="1" style="stop-color:#9B31F7"/>
</linearGradient>
<path class="st17" d="M0-174.7"/>
<path class="st18" d="M1135.1,548.8c6.4-10.6,16.2-6.6,37.9-11c24.4-5.1,27.5-34.5,5.6-53.4c-24.8-21.5-36.4-39.3-32.1-66.8
	c5.4-33.7,40.2-50.3,72-42.9c45,10.7,70.3,35.5,96.5,33.8c36-2.6,83.9-53.7,16.2-97.6c-59.2-38.3-82.2-106.4-31.7-158.6
	c84.5-87.2,204.8,35.7,204.8,35.7s72.8,78.3,173.9,65.9c0,0,78,0,102.7-104.8c12.4-70.8,81.8-99.2,139.5-79.5"/>
<path class="st18" d="M0-174.7"/>
<pattern  id="SVGID_13_" xlink:href="#h" patternTransform="matrix(-0.64 -2.000000e-02 2.000000e-02 -0.64 -11954.9795 -14762.2197)">
</pattern>
<path class="st19" d="M1128.7,548.6c0,0,5.1-2.1,5.9,2.2s-5.5,10-10.8,8.3S1120.8,551.8,1128.7,548.6z"/>
<path class="st20" d="M0-174.7"/>
<path class="st20" d="M0-174.7"/>
<path class="st20" d="M0-174.7"/>
<path class="st20" d="M0-174.7"/>
<path class="st20" d="M0-174.7"/>
<path class="st20" d="M0-174.7"/>
<path class="st20" d="M0-174.7"/>
<path class="st20" d="M0-174.7"/>
<path class="st20" d="M0-174.7"/>
<path class="st2" d="M0-174.7"/>
<path class="st2" d="M0-174.7"/>
<path class="st2" d="M0-174.7"/>
<path class="st2" d="M0-174.7"/>
<path class="st2" d="M0-174.7"/>
<path class="st2" d="M0-174.7"/>
<path class="st2" d="M0-174.7"/>
<path class="st2" d="M0-174.7"/>
<pattern  id="SVGID_14_" xlink:href="#j" patternTransform="matrix(1.2397 0.2253 0.2253 -1.2397 3973.4348 -17604.7168)">
</pattern>
<path class="st21" d="M801.2,269.9c0,0-22.5-16.4-41.5,29c-15.4,36.4-34.4,55.1-95.5,38.3c-96.9-26.6-139.8,36.4-141.5,108.7
	c-2,84.8-64.9,176.9-186.7,143.2c-157.7-43.8-265.8-66.7-381.3-37.4"/>
<ellipse transform="matrix(0.673 -0.7396 0.7396 0.673 68.3153 695.4755)" class="st22" cx="820.7" cy="270.5" rx="3.1" ry="1.8"/>
<path class="st22" d="M0-174.7"/>
<path class="st22" d="M0-174.7"/>
<path class="st22" d="M0-174.7"/>
<path class="st22" d="M0-174.7"/>
<path class="st22" d="M0-174.7"/>
<path class="st22" d="M0-174.7"/>
<path class="st22" d="M0-174.7"/>
<linearGradient id="SVGID_15_" gradientUnits="userSpaceOnUse" x1="1570.0364" y1="380.5209" x2="1564.5563" y2="390.0209" gradientTransform="matrix(1 0 0 -1 0 1098.5289)">
	<stop  offset="0" style="stop-color:#5333ED"/>
	<stop  offset="1" style="stop-color:#9B31F7"/>
</linearGradient>
<circle class="st23" cx="1567.3" cy="713.3" r="5.5"/>
<path class="st24" d="M444,193.1l38-29.5l19.4,25l-38,29.5L444,193.1z"/>
<circle class="st25" cx="472.7" cy="190.8" r="10.2"/>
<path class="st24" d="M546,315.4l31.7-36.1l23.8,20.9l-31.7,36.1L546,315.4z"/>
<path class="st25" d="M546,315.4l31.7-36.1l7.6,6.7l-31.7,36.1L546,315.4z"/>
<pattern  id="SVGID_16_" xlink:href="#l" patternTransform="matrix(0.3463 -0.8199 -0.8199 -0.3463 -12090.3125 -17646.2988)">
</pattern>
<path class="st26" d="M601.5,300.5l-31.8,36.1l-7.6-6.8l31.8-36.1L601.5,300.5z"/>
<path class="st25" d="M686.9,404l16.4-45.2l29.7,10.8l-16.4,45.2L686.9,404z"/>
<path class="st27" d="M695.3,409l16.5-45.2l16.8,6.2l-16.5,45.2L695.3,409z"/>
<path class="st24" d="M1031.5,451.8l9.1-47.2l31.1,6l-9.1,47.2L1031.5,451.8z"/>
<pattern  id="SVGID_17_" xlink:href="#m" patternTransform="matrix(-0.33 0.5 0.55 0.32 -4589.4897 -2447.0701)">
</pattern>
<path class="st28" d="M1037.6,419.8l2.9-15.3l31.1,6l-3,15.3L1037.6,419.8z"/>
<path class="st25" d="M1031.6,451.6l2.9-15.2l31.1,6l-2.9,15.2L1031.6,451.6z"/>
<path class="st24" d="M1488.9,673.4l13.2-46.3l30.4,8.7l-13.2,46.3L1488.9,673.4z"/>
<path class="st29" d="M1497.9,642.1l4.3-15l30.4,8.7l-4.3,15L1497.9,642.1z"/>
<path class="st25" d="M1488.8,673.3l4.3-15l30.4,8.7l-4.3,15L1488.8,673.3z M875.1,442.6l1.8-48.1l31.6,1.2l-1.8,48.1L875.1,442.6z"
	/>
<path class="st24" d="M888.1,443.2l1.8-48.1l5.4,0.2l-1.8,48.1L888.1,443.2z"/>
<path class="st24" d="M876,417.2l0.2-5.4l31.6,1.3l-0.2,5.4L876,417.2z"/>
<pattern  id="SVGID_18_" xlink:href="#n" patternTransform="matrix(-0.4627 0.4422 0.4422 0.4627 -7059.502 -1290.8488)">
</pattern>
<path class="st30" d="M1194.4,507.8l24.8-41.2l27.1,16.2l-24.8,41.4L1194.4,507.8z"/>
<path class="st27" d="M1202.8,512.8l24.7-41.3l4.6,2.8l-24.7,41.3L1202.8,512.8z"/>
<path class="st27" d="M1210,481.8l2.8-4.6l27.2,16.1l-2.8,4.6L1210,481.8z"/>
<path class="st25" d="M1334.8,595.2l26-40.5l26.6,17.1l-26,40.5L1334.8,595.2z"/>
<path class="st31" d="M1334.8,595.2l26-40.5l8.6,5.5l-26,40.5L1334.8,595.2z"/>
<path class="st27" d="M1352.9,606.8l26-40.5l8.6,5.5l-26,40.5L1352.9,606.8z"/>
<path class="st18" d="M-12.4,122.4c0,0,198.2-178.7,393.7-49.8c141.4,90.7,133.1,199.7,310.4,282.5
	c137.7,64.2,267.4,22.3,407.1,62.9c123.6,35.8,176.8,84.8,312.8,168.4c141.3,80.9,352.8,120.9,510.2-144"/>
<radialGradient id="SVGID_19_" cx="680.6" cy="-697.2355" r="85.3" gradientTransform="matrix(1 0 0 1 0 823.5)" gradientUnits="userSpaceOnUse">
	<stop  offset="0.1" style="stop-color:#5333ED"/>
	<stop  offset="0.23" style="stop-color:#5333ED;stop-opacity:0.92"/>
	<stop  offset="0.26" style="stop-color:#5333ED;stop-opacity:0.89"/>
	<stop  offset="0.43" style="stop-color:#5333ED;stop-opacity:0.58"/>
	<stop  offset="0.49" style="stop-color:#5333ED;stop-opacity:0.46"/>
	<stop  offset="0.6" style="stop-color:#5333ED;stop-opacity:0.29"/>
	<stop  offset="0.7" style="stop-color:#5333ED;stop-opacity:0.17"/>
	<stop  offset="0.8" style="stop-color:#5333ED;stop-opacity:7.000000e-02"/>
	<stop  offset="0.89" style="stop-color:#5333ED;stop-opacity:2.000000e-02"/>
	<stop  offset="0.98" style="stop-color:#5333ED;stop-opacity:0"/>
</radialGradient>
<circle class="st32" cx="680.6" cy="126.3" r="85.3"/>
<linearGradient id="SVGID_20_" gradientUnits="userSpaceOnUse" x1="701.6057" y1="-660.8576" x2="659.5457" y2="-733.6976" gradientTransform="matrix(1 0 0 1 0 823.5)">
	<stop  offset="0" style="stop-color:#18A0AA"/>
	<stop  offset="0.17" style="stop-color:#1EB0B9"/>
	<stop  offset="0.44" style="stop-color:#26C4CB"/>
	<stop  offset="0.72" style="stop-color:#2AD0D5"/>
	<stop  offset="1" style="stop-color:#2CD4D9"/>
</linearGradient>
<circle class="st33" cx="680.6" cy="126.3" r="42"/>
<circle class="st34" cx="833.8" cy="282.8" r="21.6"/>
<path class="st24" d="M0-174.7"/>
<circle class="st34" cx="1119.7" cy="548.8" r="19.7"/>
<path class="st24" d="M0-174.7"/>
<g>
	<linearGradient id="SVGID_21_" gradientUnits="userSpaceOnUse" x1="179.3361" y1="85.5929" x2="211.8431" y2="85.5929">
		<stop  offset="0" style="stop-color:#5333ED;stop-opacity:0.2"/>
		<stop  offset="1" style="stop-color:#9B31F7;stop-opacity:0.2"/>
	</linearGradient>
	<polygon class="st35" points="211.8,95 211.8,76.2 195.6,66.8 179.3,76.2 179.3,95 195.6,104.4 	"/>
	<g>
		<linearGradient id="SVGID_22_" gradientUnits="userSpaceOnUse" x1="190.4503" y1="96.8226" x2="190.4503" y2="79.9742">
			<stop  offset="0" style="stop-color:#C019FA"/>
			<stop  offset="1" style="stop-color:#4302FF"/>
		</linearGradient>
		<polygon class="st36" points="185.3,80 185.3,91.3 195.6,96.8 195.6,85.8 		"/>
		
			<linearGradient id="SVGID_23_" gradientUnits="userSpaceOnUse" x1="3279.354" y1="96.8226" x2="3279.354" y2="79.9742" gradientTransform="matrix(-1 0 0 1 3480.0845 0)">
			<stop  offset="0" style="stop-color:#C019FA"/>
			<stop  offset="1" style="stop-color:#4302FF"/>
		</linearGradient>
		<polygon class="st37" points="205.9,80 205.9,91.3 195.6,96.8 195.6,85.8 		"/>
		<linearGradient id="SVGID_24_" gradientUnits="userSpaceOnUse" x1="195.5896" y1="85.7818" x2="195.5896" y2="74.3632">
			<stop  offset="0" style="stop-color:#C019FA"/>
			<stop  offset="1" style="stop-color:#7A15FA"/>
		</linearGradient>
		<polygon class="st38" points="185.3,80 195.6,74.4 205.9,80 195.6,85.8 		"/>
	</g>
</g>
<g>
	<linearGradient id="SVGID_25_" gradientUnits="userSpaceOnUse" x1="376.8831" y1="529.9336" x2="439.8849" y2="529.9336">
		<stop  offset="0" style="stop-color:#5333ED;stop-opacity:0.2"/>
		<stop  offset="1" style="stop-color:#9B31F7;stop-opacity:0.2"/>
	</linearGradient>
	<polygon class="st39" points="439.9,548.1 439.9,511.7 408.4,493.6 376.9,511.7 376.9,548.1 408.4,566.3 	"/>
	<g>
		<linearGradient id="SVGID_26_" gradientUnits="userSpaceOnUse" x1="398.4235" y1="551.6978" x2="398.4235" y2="519.044">
			<stop  offset="0" style="stop-color:#C019FA"/>
			<stop  offset="1" style="stop-color:#4302FF"/>
		</linearGradient>
		<polygon class="st40" points="388.5,519 388.5,541 408.4,551.7 408.4,530.3 		"/>
		
			<linearGradient id="SVGID_27_" gradientUnits="userSpaceOnUse" x1="3061.7371" y1="551.6978" x2="3061.7371" y2="519.044" gradientTransform="matrix(-1 0 0 1 3480.0845 0)">
			<stop  offset="0" style="stop-color:#C019FA"/>
			<stop  offset="1" style="stop-color:#4302FF"/>
		</linearGradient>
		<polygon class="st41" points="428.3,519 428.3,541 408.4,551.7 408.4,530.3 		"/>
		<linearGradient id="SVGID_28_" gradientUnits="userSpaceOnUse" x1="408.3839" y1="530.2997" x2="408.3839" y2="508.1694">
			<stop  offset="0" style="stop-color:#C019FA"/>
			<stop  offset="1" style="stop-color:#7A15FA"/>
		</linearGradient>
		<polygon class="st42" points="388.5,519 408.4,508.2 428.3,519 408.4,530.3 		"/>
	</g>
</g>
<g>
	<linearGradient id="SVGID_29_" gradientUnits="userSpaceOnUse" x1="1597.3326" y1="596.2594" x2="1645.6869" y2="596.2594">
		<stop  offset="0" style="stop-color:#5333ED;stop-opacity:0.2"/>
		<stop  offset="1" style="stop-color:#9B31F7;stop-opacity:0.2"/>
	</linearGradient>
	<polygon class="st43" points="1645.7,610.2 1645.7,582.3 1621.5,568.3 1597.3,582.3 1597.3,610.2 1621.5,624.2 	"/>
	<g>
		<linearGradient id="SVGID_30_" gradientUnits="userSpaceOnUse" x1="1613.8651" y1="612.9636" x2="1613.8651" y2="587.9016">
			<stop  offset="0" style="stop-color:#C019FA"/>
			<stop  offset="1" style="stop-color:#4302FF"/>
		</linearGradient>
		<polygon class="st44" points="1606.2,587.9 1606.2,604.8 1621.5,613 1621.5,596.5 		"/>
		
			<linearGradient id="SVGID_31_" gradientUnits="userSpaceOnUse" x1="1850.9277" y1="612.9636" x2="1850.9277" y2="587.9016" gradientTransform="matrix(-1 0 0 1 3480.0845 0)">
			<stop  offset="0" style="stop-color:#C019FA"/>
			<stop  offset="1" style="stop-color:#4302FF"/>
		</linearGradient>
		<polygon class="st45" points="1636.8,587.9 1636.8,604.8 1621.5,613 1621.5,596.5 		"/>
		<linearGradient id="SVGID_32_" gradientUnits="userSpaceOnUse" x1="1621.5098" y1="596.5405" x2="1621.5098" y2="579.5552">
			<stop  offset="0" style="stop-color:#C019FA"/>
			<stop  offset="1" style="stop-color:#7A15FA"/>
		</linearGradient>
		<polygon class="st46" points="1606.2,587.9 1621.5,579.6 1636.8,587.9 1621.5,596.5 		"/>
	</g>
</g>
<g>
	<linearGradient id="SVGID_33_" gradientUnits="userSpaceOnUse" x1="1660.9314" y1="196.064" x2="1701.0768" y2="196.064">
		<stop  offset="0" style="stop-color:#5333ED;stop-opacity:0.2"/>
		<stop  offset="1" style="stop-color:#9B31F7;stop-opacity:0.2"/>
	</linearGradient>
	<polygon class="st47" points="1701.1,207.7 1701.1,184.5 1681,172.9 1660.9,184.5 1660.9,207.7 1681,219.2 	"/>
	<g>
		<linearGradient id="SVGID_34_" gradientUnits="userSpaceOnUse" x1="1674.6572" y1="209.9324" x2="1674.6572" y2="189.1251">
			<stop  offset="0" style="stop-color:#C019FA"/>
			<stop  offset="1" style="stop-color:#4302FF"/>
		</linearGradient>
		<polygon class="st48" points="1668.3,189.1 1668.3,203.1 1681,209.9 1681,196.3 		"/>
		
			<linearGradient id="SVGID_35_" gradientUnits="userSpaceOnUse" x1="1792.7316" y1="209.9324" x2="1792.7316" y2="189.1251" gradientTransform="matrix(-1 0 0 1 3480.0845 0)">
			<stop  offset="0" style="stop-color:#C019FA"/>
			<stop  offset="1" style="stop-color:#4302FF"/>
		</linearGradient>
		<polygon class="st49" points="1693.7,189.1 1693.7,203.1 1681,209.9 1681,196.3 		"/>
		<linearGradient id="SVGID_36_" gradientUnits="userSpaceOnUse" x1="1681.0042" y1="196.2974" x2="1681.0042" y2="182.1957">
			<stop  offset="0" style="stop-color:#C019FA"/>
			<stop  offset="1" style="stop-color:#7A15FA"/>
		</linearGradient>
		<polygon class="st50" points="1668.3,189.1 1681,182.2 1693.7,189.1 1681,196.3 		"/>
	</g>
</g>
<g>
	<linearGradient id="SVGID_37_" gradientUnits="userSpaceOnUse" x1="788.9465" y1="269.472" x2="833.8" y2="269.472">
		<stop  offset="0" style="stop-color:#5333ED;stop-opacity:0.2"/>
		<stop  offset="1" style="stop-color:#9B31F7;stop-opacity:0.2"/>
	</linearGradient>
	<polygon class="st51" points="833.8,282.4 833.8,256.5 811.4,243.6 788.9,256.5 788.9,282.4 811.4,295.4 	"/>
	<g>
		<linearGradient id="SVGID_38_" gradientUnits="userSpaceOnUse" x1="804.282" y1="284.9667" x2="804.282" y2="261.7192">
			<stop  offset="0" style="stop-color:#C019FA"/>
			<stop  offset="1" style="stop-color:#4302FF"/>
		</linearGradient>
		<polygon class="st52" points="797.2,261.7 797.2,277.4 811.4,285 811.4,269.7 		"/>
		
			<linearGradient id="SVGID_39_" gradientUnits="userSpaceOnUse" x1="2661.6179" y1="284.9667" x2="2661.6179" y2="261.7192" gradientTransform="matrix(-1 0 0 1 3480.0845 0)">
			<stop  offset="0" style="stop-color:#C019FA"/>
			<stop  offset="1" style="stop-color:#4302FF"/>
		</linearGradient>
		<polygon class="st53" points="825.6,261.7 825.6,277.4 811.4,285 811.4,269.7 		"/>
		<linearGradient id="SVGID_40_" gradientUnits="userSpaceOnUse" x1="811.3732" y1="269.7326" x2="811.3732" y2="253.9771">
			<stop  offset="0" style="stop-color:#C019FA"/>
			<stop  offset="1" style="stop-color:#7A15FA"/>
		</linearGradient>
		<polygon class="st54" points="797.2,261.7 811.4,254 825.6,261.7 811.4,269.7 		"/>
	</g>
</g>
<g>
	<linearGradient id="SVGID_41_" gradientUnits="userSpaceOnUse" x1="1089.2072" y1="554.7355" x2="1150.1927" y2="554.7355">
		<stop  offset="0" style="stop-color:#5333ED;stop-opacity:0.2"/>
		<stop  offset="1" style="stop-color:#9B31F7;stop-opacity:0.2"/>
	</linearGradient>
	<polygon class="st55" points="1150.2,572.3 1150.2,537.1 1119.7,519.5 1089.2,537.1 1089.2,572.3 1119.7,589.9 	"/>
	<g>
		<linearGradient id="SVGID_42_" gradientUnits="userSpaceOnUse" x1="1110.0582" y1="575.8032" x2="1110.0582" y2="544.1944">
			<stop  offset="0" style="stop-color:#C019FA"/>
			<stop  offset="1" style="stop-color:#4302FF"/>
		</linearGradient>
		<polygon class="st56" points="1100.4,544.2 1100.4,565.5 1119.7,575.8 1119.7,555.1 		"/>
		
			<linearGradient id="SVGID_43_" gradientUnits="userSpaceOnUse" x1="2350.74" y1="575.8032" x2="2350.74" y2="544.1944" gradientTransform="matrix(-1 0 0 1 3480.0845 0)">
			<stop  offset="0" style="stop-color:#C019FA"/>
			<stop  offset="1" style="stop-color:#4302FF"/>
		</linearGradient>
		<polygon class="st57" points="1139,544.2 1139,565.5 1119.7,575.8 1119.7,555.1 		"/>
		<linearGradient id="SVGID_44_" gradientUnits="userSpaceOnUse" x1="1119.7" y1="555.09" x2="1119.7" y2="533.6678">
			<stop  offset="0" style="stop-color:#C019FA"/>
			<stop  offset="1" style="stop-color:#7A15FA"/>
		</linearGradient>
		<polygon class="st58" points="1100.4,544.2 1119.7,533.7 1139,544.2 1119.7,555.1 		"/>
	</g>
</g>
</svg>
